<svg width="118" height="30" viewBox="0 0 118 30" fill="none" xmlns="http://www.w3.org/2000/svg">
<path fill-rule="evenodd" clip-rule="evenodd" d="M49.2015 0.000343243C41.0106 0.000343243 34.3705 6.71599 34.3705 15.0002C34.3705 23.2843 41.0106 30 49.2015 30H62.4292C70.6201 30 77.2602 23.2843 77.2602 15.0002C77.2602 6.71599 70.6201 0.000343243 62.4292 0.000343243H49.2015ZM44.5919 8.91915C41.2713 8.91915 38.5793 11.6417 38.5793 15.0002C38.5793 18.3586 41.2713 21.0812 44.5919 21.0812H67.0388C70.3594 21.0812 73.0514 18.3586 73.0514 15.0002C73.0514 11.6417 70.3594 8.91915 67.0388 8.91915H44.5919Z" fill="black"/>
<path fill-rule="evenodd" clip-rule="evenodd" d="M34.3708 0H0.5V7.29721H12.6003C13.7072 7.29721 14.6045 8.20473 14.6045 9.32421V29.9996H20.2663L20.2663 9.32421C20.2663 8.20473 21.1636 7.29721 22.2705 7.29721H34.3708V0Z" fill="black"/>
<path fill-rule="evenodd" clip-rule="evenodd" d="M111.131 0H77.2604V7.29721H89.3607C90.4676 7.29721 91.3649 8.20473 91.3649 9.32421V29.9996H97.0267V9.32421C97.0267 8.20473 97.924 7.29721 99.0309 7.29721H111.131V0Z" fill="black"/>
<path d="M108.926 24.5132C108.966 24.3901 108.899 24.2579 108.777 24.2179L105.908 23.2749C105.728 23.2157 105.557 23.3881 105.616 23.5701L107.202 28.508C107.271 28.7239 107.573 28.7239 107.643 28.508L108.926 24.5132Z" fill="#FF2B00"/>
<path d="M110.086 23.2341C110.032 23.4018 110.174 23.5673 110.346 23.5375L116.587 22.4548C116.789 22.4198 116.85 22.1561 116.684 22.0343L111.916 18.5307C111.789 18.4371 111.608 18.4965 111.56 18.6479L110.086 23.2341Z" fill="#FF2B00"/>
<path d="M108.998 23.5326C109.119 23.5726 109.25 23.5052 109.29 23.3821L110.573 19.3873C110.642 19.1714 110.398 18.9919 110.216 19.1253L106.063 22.1771C105.91 22.2896 105.948 22.5304 106.128 22.5895L108.998 23.5326Z" fill="#FF2B00"/>
<path d="M114.291 29.6013C114.434 29.7497 114.33 29.9991 114.125 29.9991L108.232 29.9991C108.074 29.9991 107.963 29.8438 108.011 29.6924L109.485 25.1062C109.539 24.9385 109.749 24.8888 109.871 25.015L114.291 29.6013Z" fill="#FF2B00"/>
<path d="M115.481 29.3133C115.427 29.481 115.217 29.5307 115.095 29.4045L110.482 24.6185C110.352 24.4833 110.425 24.2559 110.609 24.224L117.122 23.0942C117.294 23.0644 117.435 23.2299 117.382 23.3975L115.481 29.3133Z" fill="#FF2B00"/>
</svg>
